<svg width="104" height="19" viewBox="0 0 104 19" xmlns="http://www.w3.org/2000/svg">
<path d="M3.15578 5.184C2.43578 5.184 1.83578 4.952 1.35578 4.488C0.875781 4.024 0.635781 3.432 0.635781 2.712C0.635781 2.008 0.875781 1.424 1.35578 0.959999C1.83578 0.48 2.43578 0.24 3.15578 0.24C3.85978 0.24 4.45178 0.48 4.93178 0.959999C5.42778 1.44 5.67578 2.024 5.67578 2.712C5.67578 3.416 5.42778 4.008 4.93178 4.488C4.45178 4.952 3.85978 5.184 3.15578 5.184ZM0.755781 6.48H5.55578V18H0.755781V6.48ZM7.59672 1.224H12.5647V13.824H19.3327V18H7.59672V1.224ZM20.2998 1.224H25.2678V13.824H32.0358V18H20.2998V1.224ZM39.8872 18.36C38.1272 18.36 36.6632 18.032 35.4952 17.376C34.3272 16.72 33.4552 15.816 32.8792 14.664C32.3192 13.512 32.0392 12.192 32.0392 10.704V1.224H37.0072V10.656C37.0072 11.68 37.2472 12.456 37.7272 12.984C38.2232 13.512 38.9432 13.776 39.8872 13.776C40.8312 13.776 41.5432 13.512 42.0232 12.984C42.5192 12.456 42.7672 11.68 42.7672 10.656V1.224H47.7352V10.704C47.7352 12.192 47.4472 13.512 46.8712 14.664C46.3112 15.816 45.4472 16.72 44.2792 17.376C43.1112 18.032 41.6472 18.36 39.8872 18.36ZM54.9264 18.36C53.8544 18.36 52.7744 18.248 51.6864 18.024C50.5984 17.816 49.7184 17.536 49.0464 17.184V12.792C49.9264 13.272 50.8464 13.632 51.8064 13.872C52.7824 14.112 53.6944 14.232 54.5424 14.232C55.7744 14.232 56.3904 13.904 56.3904 13.248C56.3904 12.976 56.2944 12.744 56.1024 12.552C55.9264 12.344 55.6544 12.152 55.2864 11.976C54.9184 11.784 54.3344 11.512 53.5344 11.16C51.9824 10.488 50.8544 9.752 50.1504 8.952C49.4624 8.152 49.1184 7.16 49.1184 5.976C49.1184 4.984 49.3904 4.104 49.9344 3.336C50.4944 2.552 51.2704 1.944 52.2624 1.512C53.2544 1.08 54.3984 0.863999 55.6944 0.863999C56.7504 0.863999 57.6864 0.951999 58.5024 1.128C59.3184 1.288 60.1104 1.552 60.8784 1.92V6.168C59.4864 5.4 58.0624 5.016 56.6064 5.016C55.9664 5.016 55.4544 5.112 55.0704 5.304C54.6864 5.48 54.4944 5.744 54.4944 6.096C54.4944 6.448 54.6624 6.736 54.9984 6.96C55.3504 7.168 56.0064 7.464 56.9664 7.848L57.4944 8.064C58.6304 8.528 59.5024 8.992 60.1104 9.456C60.7344 9.904 61.1824 10.432 61.4544 11.04C61.7264 11.632 61.8624 12.384 61.8624 13.296C61.8624 14.88 61.2864 16.12 60.1344 17.016C58.9824 17.912 57.2464 18.36 54.9264 18.36ZM62.9477 1.224H67.7477V12.216H62.9477V1.224ZM65.3477 18.36C64.6277 18.36 64.0277 18.128 63.5477 17.664C63.0677 17.184 62.8277 16.592 62.8277 15.888C62.8277 15.184 63.0677 14.6 63.5477 14.136C64.0277 13.656 64.6277 13.416 65.3477 13.416C66.0357 13.416 66.6197 13.656 67.0997 14.136C67.5957 14.6 67.8437 15.184 67.8437 15.888C67.8437 16.576 67.5957 17.16 67.0997 17.64C66.6197 18.12 66.0357 18.36 65.3477 18.36ZM77.8762 18.36C76.1802 18.36 74.6362 17.992 73.2442 17.256C71.8682 16.52 70.7802 15.496 69.9802 14.184C69.1962 12.856 68.8042 11.336 68.8042 9.624C68.8042 7.912 69.1962 6.392 69.9802 5.064C70.7802 3.736 71.8682 2.704 73.2442 1.968C74.6362 1.232 76.1802 0.863999 77.8762 0.863999C79.5722 0.863999 81.1002 1.232 82.4602 1.968C83.8362 2.704 84.9162 3.736 85.7002 5.064C86.5002 6.392 86.9002 7.912 86.9002 9.624C86.9002 11.336 86.5002 12.856 85.7002 14.184C84.9162 15.496 83.8362 16.52 82.4602 17.256C81.1002 17.992 79.5722 18.36 77.8762 18.36ZM77.8762 13.704C78.6122 13.704 79.2762 13.544 79.8682 13.224C80.4762 12.888 80.9562 12.416 81.3082 11.808C81.6602 11.184 81.8362 10.456 81.8362 9.624C81.8362 8.392 81.4602 7.408 80.7082 6.672C79.9562 5.936 79.0122 5.568 77.8762 5.568C76.7242 5.568 75.7642 5.936 74.9962 6.672C74.2442 7.408 73.8682 8.392 73.8682 9.624C73.8682 10.456 74.0442 11.184 74.3962 11.808C74.7482 12.416 75.2282 12.888 75.8362 13.224C76.4442 13.544 77.1242 13.704 77.8762 13.704ZM88.3389 1.224H93.1629L98.3949 10.008V1.224H103.363V18H98.5629L93.3069 9.216V18H88.3389V1.224Z" fill="black"/>
</svg>
