<svg width="104" height="23" viewBox="0 0 104 23" fill="none" xmlns="http://www.w3.org/2000/svg">
<path d="M4.26901 1.49119C4.69676 1.9426 4.97031 2.54641 5.04261 3.19874C5.11491 3.85107 4.98144 4.51114 4.66516 5.06544C4.34889 5.61975 3.86956 6.03363 3.30965 6.23589C2.74974 6.43815 2.14426 6.41616 1.5973 6.17369C1.05033 5.93121 0.596104 5.48342 0.312744 4.90733C0.0293852 4.33124 -0.0654041 3.66286 0.0446923 3.01716C0.154789 2.37145 0.462887 1.78878 0.915986 1.36937C1.36909 0.94995 1.93886 0.719999 2.52732 0.719074C2.84955 0.707174 3.17051 0.76961 3.47017 0.902454C3.76984 1.0353 4.04179 1.23571 4.26901 1.49119ZM4.51394 22.952H0.56794V7.75311H4.5357L4.51394 22.952Z" fill="#211F1F"/>
<path d="M11.7038 18.3681V0.652262H7.64352V22.8973H16.7166V18.3681H11.7038Z" fill="#211F1F"/>
<path d="M16.7166 0.658329V18.3741H20.777V0.658329H16.7166Z" fill="#211F1F"/>
<path d="M20.7878 18.3741H16.7166V22.9034H20.7878V18.3741Z" fill="#F91E87"/>
<path d="M11.6984 18.3741H7.63808V22.9034H11.6984V18.3741Z" fill="#FFEC00"/>
<path d="M38.7326 0.658329V13.4558C38.7655 15.2021 38.4082 16.9301 37.693 18.4835C37.0316 19.8942 36.0158 21.0585 34.7703 21.8334C33.7781 22.4873 32.6558 22.855 31.5046 22.9034H20.7878V18.3741H26.0401C25.3589 16.8482 25.0189 15.1605 25.0495 13.4558V0.658329H29.1153V13.4558C29.0517 14.8857 29.4603 16.2919 30.2637 17.4075C30.4677 17.6582 30.7165 17.8586 30.9939 17.9957C31.2713 18.1328 31.5713 18.2036 31.8747 18.2036C32.1781 18.2036 32.4781 18.1328 32.7556 17.9957C33.033 17.8586 33.2817 17.6582 33.4858 17.4075C34.2891 16.2919 34.6978 14.8857 34.6342 13.4558V0.658329H38.7326Z" fill="#211F1F"/>
<path d="M52.198 1.56421C53.2387 2.10754 54.1339 2.94599 54.7942 3.99602C55.4448 5.05081 55.8129 6.29079 55.8555 7.5708H51.6592C51.5808 6.71827 51.2055 5.93435 50.6142 5.38824C49.9442 4.83393 49.1227 4.55671 48.2901 4.60398C47.5262 4.55789 46.7676 4.76973 46.113 5.21193C45.8733 5.37635 45.6757 5.60716 45.5393 5.88197C45.4029 6.15677 45.3325 6.46626 45.3347 6.78045C45.3274 7.02037 45.3675 7.25913 45.4522 7.47977C45.5369 7.70042 45.664 7.89755 45.8245 8.05715C46.2695 8.45745 46.7823 8.75316 47.3322 8.92652C48.3038 9.26403 49.2902 9.54609 50.2876 9.77159C52.2941 10.258 53.7347 11.0584 54.6091 12.173C55.4954 13.3439 55.9592 14.8417 55.91 16.374C55.9324 17.614 55.5923 18.8285 54.9411 19.8332C54.2617 20.8466 53.3469 21.6329 52.296 22.107C51.1139 22.6495 49.8455 22.9184 48.5677 22.8973C47.1906 22.9218 45.8248 22.6171 44.5618 22.0036C43.4331 21.4516 42.4617 20.5642 41.7533 19.4381C41.0448 18.29 40.653 16.9352 40.6267 15.5411H44.7958C44.8464 16.0213 44.9845 16.4848 45.2017 16.9031C45.4189 17.3213 45.7105 17.6854 46.0586 17.9729C46.8749 18.6206 47.8612 18.9458 48.8616 18.897C49.5934 18.9286 50.3154 18.7009 50.9244 18.2465C51.1369 18.0825 51.3166 17.871 51.4522 17.6255C51.5877 17.38 51.6762 17.1057 51.712 16.82C51.7479 16.5343 51.7302 16.2434 51.6602 15.9657C51.5902 15.688 51.4694 15.4296 51.3054 15.2067C50.918 14.7729 50.4415 14.4514 49.9175 14.2704C49.0546 13.9426 48.1702 13.6906 47.2723 13.5166C45.2367 13.0667 43.7127 12.3128 42.7004 11.255C42.178 10.6718 41.7725 9.97137 41.5107 9.19998C41.2489 8.42859 41.1368 7.60387 41.1818 6.78045C41.1596 5.60581 41.5018 4.45875 42.1506 3.53397C42.8479 2.5767 43.761 1.84431 44.7958 1.41222C45.993 0.904572 47.2655 0.654964 48.5459 0.6766C49.8081 0.6559 51.0576 0.959587 52.198 1.56421Z" fill="#211F1F"/>
<path d="M62.3378 1.44866C62.7684 1.90148 63.0441 2.50784 63.1175 3.16328C63.1909 3.81872 63.0574 4.48223 62.74 5.03957C62.4226 5.59692 61.9411 6.0132 61.3786 6.21672C60.816 6.42025 60.2075 6.39829 59.6578 6.15463C59.1081 5.91096 58.6517 5.46083 58.3672 4.88176C58.0827 4.30269 57.9878 3.63093 58.0989 2.98214C58.21 2.33336 58.5202 1.74817 58.976 1.32734C59.4319 0.906504 60.0048 0.676367 60.5962 0.676564C60.9183 0.665752 61.2389 0.728665 61.5385 0.861447C61.838 0.994229 62.11 1.19407 62.3378 1.44866ZM62.5828 22.9094H58.6096V7.71058H62.5828V22.9094Z" fill="#211F1F"/>
<path d="M69.6692 21.4747C68.1911 20.5318 66.9745 19.1518 66.1532 17.4865C65.3169 15.7254 64.8796 13.7622 64.8796 11.7687C64.8796 9.77516 65.3169 7.81199 66.1532 6.05089C66.9745 4.38556 68.1911 3.00555 69.6692 2.06271C71.2103 1.11379 72.9414 0.616128 74.7011 0.616128C76.4608 0.616128 78.1919 1.11379 79.7329 2.06271C81.2111 3.00555 82.4277 4.38556 83.2489 6.05089C84.0853 7.81199 84.5226 9.77516 84.5226 11.7687C84.5226 13.7622 84.0853 15.7254 83.2489 17.4865C82.4277 19.1518 81.2111 20.5318 79.7329 21.4747C78.1919 22.4236 76.4608 22.9213 74.7011 22.9213C72.9414 22.9213 71.2103 22.4236 69.6692 21.4747ZM77.6483 17.7601C78.5273 17.1692 79.2415 16.3166 79.7111 15.2979C80.2051 14.2011 80.4623 12.9904 80.4623 11.7626C80.4623 10.5349 80.2051 9.32415 79.7111 8.22735C79.2372 7.21997 78.5234 6.37841 77.6483 5.79554C76.9889 5.34561 76.2541 5.0511 75.489 4.9301C74.724 4.80911 73.9448 4.86419 73.1995 5.09196C72.4542 5.31973 71.7585 5.71538 71.1551 6.25458C70.5518 6.79378 70.0535 7.46513 69.691 8.22735C69.1996 9.32498 68.9437 10.5354 68.9437 11.7626C68.9437 12.9899 69.1996 14.2002 69.691 15.2979C70.162 16.3155 70.876 17.1677 71.7538 17.7601C72.6488 18.3416 73.6657 18.6479 74.7011 18.6479C75.7365 18.6479 76.7534 18.3416 77.6483 17.7601Z" fill="#211F1F"/>
<path d="M86.9337 0.615753H90.3246L99.4086 14.24V0.615753H103.469V22.8426H100.062L90.9777 9.85666V22.8426H86.9174L86.9337 0.615753Z" fill="#211F1F"/>
</svg>
