<svg viewBox="0 0 32 32" xmlns="http://www.w3.org/2000/svg">
<rect y="8" width="30" height="2" />
<rect y="10" width="4" height="2" />
<rect x="8" y="10" width="2" height="2" />
<rect x="12" y="12" width="2" height="2" />
<rect x="12" y="22" width="2" height="2" />
<rect x="24" y="22" width="2" height="2" />
<rect x="24" y="12" width="2" height="2" />
<rect x="22" y="4" width="6" height="2" />
<rect x="22" y="6" width="2" height="2" />
<rect x="26" y="6" width="2" height="2" />
<rect x="10" y="14" width="2" height="8" />
<rect y="12" width="10" height="2" />
<rect y="14" width="2" height="12" />
<rect y="26" width="32" height="2" />
<rect x="14" y="24" width="10" height="2" />
<rect x="30" y="10" width="2" height="16" />
<rect x="14" y="10" width="10" height="2" />
<rect x="16" y="12" width="6" height="2" />
<rect x="14" y="14" width="10" height="6" />
<rect x="26" y="14" width="2" height="8" />
<rect x="16" y="20" width="6" height="2" />
</svg>
