<svg viewBox="0 0 32 32" xmlns="http://www.w3.org/2000/svg">
<rect x="26" width="2" height="2" />
<rect x="26" y="2" width="2" height="2" />
<rect x="24" y="4" width="2" height="2" />
<rect x="22" y="6" width="2" height="2" />
<rect x="20" y="8" width="2" height="2" />
<rect x="18" y="10" width="2" height="2" />
<rect x="22" y="10" width="2" height="2" />
<rect x="24" y="8" width="2" height="2" />
<rect x="26" y="6" width="2" height="2" />
<rect x="28" y="4" width="2" height="2" />
<rect x="28" width="2" height="2" />
<rect x="30" y="4" width="2" height="2" />
<rect x="30" y="2" width="2" height="2" />
<rect x="30" width="2" height="2" />
<rect x="20" y="12" width="2" height="2" />
<rect x="18" y="14" width="2" height="2" />
<rect x="16" y="16" width="2" height="2" />
<rect x="14" y="4" width="2" height="2" />
<rect x="14" y="18" width="2" height="2" />
<rect x="12" y="20" width="10" height="2" />
<rect x="10" y="22" width="10" height="2" />
<rect x="8" y="24" width="8" height="2" />
<rect x="6" y="22" width="2" height="2" />
<rect x="14" y="6" width="2" height="2" />
<rect x="12" y="6" width="2" height="2" />
<rect x="10" y="8" width="4" height="4" />
<rect x="10" y="12" width="8" height="2" />
<rect x="8" y="14" width="8" height="2" />
<rect x="4" y="16" width="10" height="2" />
<rect x="10" y="26" width="4" height="2" />
<rect y="18" width="12" height="2" />
<rect y="20" width="10" height="2" />
<rect y="22" width="4" height="2" />
<rect y="24" width="6" height="2" />
<rect y="26" width="8" height="2" />
<rect y="28" width="14" height="2" />
<rect x="2" y="30" width="12" height="2" />
</svg>
