<svg viewBox="0 0 32 32" xmlns="http://www.w3.org/2000/svg">
<rect x="4" y="2" width="10" height="2" />
<rect y="6" width="32" height="6" />
<rect x="2" y="4" width="28" height="2" />
<rect x="2" y="12" width="28" height="4" />
<rect x="4" y="16" width="24" height="2" />
<rect x="6" y="18" width="20" height="2" />
<rect x="8" y="20" width="16" height="2" />
<rect x="10" y="22" width="12" height="2" />
<rect x="12" y="24" width="8" height="2" />
<rect x="14" y="26" width="4" height="2" />
<rect x="2" y="20" width="2" height="2" />
<rect x="2" y="22" width="2" height="2" />
<rect x="4" y="24" width="2" height="2" />
<rect x="6" y="26" width="2" height="2" />
<rect x="8" y="26" width="2" height="2" />
<rect x="6" y="30" width="2" height="2" />
<rect x="4" y="30" width="2" height="2" />
<rect x="2" y="28" width="2" height="2" />
<rect y="26" width="2" height="2" />
<rect x="28" y="20" width="2" height="2" />
<rect x="26" y="24" width="2" height="2" />
<rect x="28" y="22" width="2" height="2" />
<rect x="28" y="28" width="2" height="2" />
<rect x="22" y="26" width="2" height="2" />
<rect x="24" y="26" width="2" height="2" />
<rect x="26" y="30" width="2" height="2" />
<rect x="24" y="30" width="2" height="2" />
<rect x="6" width="6" height="2" />
<rect x="18" y="2" width="10" height="2" />
<rect x="20" width="6" height="2" />
</svg>
