<svg viewBox="0 0 76 76" xmlns="http://www.w3.org/2000/svg">
<rect x="33" width="5" height="5" />
<rect x="14" y="4" width="5" height="5" />
<rect x="33" y="5" width="5" height="5" />
<rect x="28" y="10" width="5" height="5" />
<rect x="33" y="15" width="5" height="5" />
<rect x="47" y="20" width="5" height="5" />
<rect x="9" y="71" width="58" height="5" />
<rect y="66" width="9" height="5" />
<rect y="61" width="5" height="5" />
<rect x="5" y="57" width="23" height="4" />
<rect x="19" y="52" width="5" height="5" />
<rect x="47" y="52" width="5" height="5" />
<rect x="52" y="47" width="5" height="5" />
<rect x="52" y="47" width="5" height="5" />
<rect x="67" y="37" width="5" height="5" />
<rect x="62" y="18" width="10" height="5" />
<rect x="57" y="32" width="5" height="10" />
<rect x="52" y="23" width="10" height="10" />
<rect x="72" y="23" width="4" height="14" />
<rect x="57" y="42" width="10" height="5" />
<rect x="14" y="42" width="5" height="10" />
<path d="M9 23H19V33H9V23Z" />
<path d="M19 28H52V38H19V28Z" />
<rect x="9" y="33" width="5" height="10" />
<rect x="43" y="57" width="28" height="4" />
<rect x="52" y="15" width="5" height="5" />
<rect x="47" y="10" width="5" height="5" />
<rect x="47" y="5" width="5" height="5" />
<rect x="52" width="5" height="5" />
<rect x="14" y="9" width="5" height="5" />
<rect x="19" y="14" width="5" height="5" />
<rect x="67" y="66" width="9" height="5" />
<rect x="71" y="61" width="5" height="5" />
<rect x="19" y="61" width="33" height="5" />
</svg>
