<svg viewBox="0 0 32 32" xmlns="http://www.w3.org/2000/svg">
<rect x="14" y="1" width="6" height="2" />
<rect x="8" y="7" width="8" height="2" />
<rect x="18" y="7" width="8" height="2" />
<rect x="6" y="9" width="8" height="2" />
<rect x="4" y="11" width="8" height="2" />
<rect x="2" y="13" width="8" height="2" />
<rect x="20" y="9" width="8" height="2" />
<rect x="22" y="11" width="8" height="2" />
<rect x="24" y="13" width="8" height="2" />
<rect x="26" y="15" width="6" height="2" />
<rect x="28" y="17" width="4" height="2" />
<rect x="28" y="19" width="2" height="10" />
<rect x="24" y="17" width="2" height="12" />
<rect x="20" y="17" width="2" height="12" />
<rect x="6" y="19" width="2" height="8" />
<rect x="10" y="19" width="2" height="8" />
<rect x="14" y="19" width="2" height="8" />
<rect x="8" y="21" width="2" height="2" />
<rect x="12" y="21" width="2" height="2" />
<rect x="8" y="25" width="2" height="2" />
<rect x="12" y="25" width="2" height="2" />
<rect x="22" y="21" width="2" height="2" />
<rect x="22" y="17" width="2" height="2" />
<rect x="16" y="9" width="2" height="2" />
<rect x="14" y="11" width="2" height="2" />
<rect x="18" y="11" width="2" height="2" />
<rect x="14" y="13" width="6" height="2" />
<rect x="2" y="19" width="2" height="10" />
<rect x="2" y="29" width="28" height="2" />
<rect y="15" width="8" height="2" />
<rect y="17" width="16" height="2" />
<rect x="12" y="3" width="10" height="2" />
<rect x="10" y="5" width="14" height="2" />
</svg>
