<svg viewBox="0 0 24 24" xmlns="http://www.w3.org/2000/svg">
<path d="M13.2 17.6163C13.2 20.0338 15.0876 22 17.4084 22C19.7292 22 21.6168 20.0338 21.6168 17.6163C21.6168 17.395 21.5844 17.1825 21.5532 16.97H21.6V4.5H24V2H20.4C20.0817 2 19.7765 2.1317 19.5515 2.36612C19.3264 2.60054 19.2 2.91848 19.2 3.25V13.6663C18.6413 13.3846 18.0291 13.2368 17.4084 13.2338C16.2928 13.2347 15.2231 13.6967 14.4341 14.5184C13.6451 15.34 13.2013 16.4541 13.2 17.6163ZM0 3.25H16.8V5.75H0V3.25Z" />
<path d="M0 8.25H16.8V10.75H0V8.25ZM0 13.25H10.8V15.75H0V13.25ZM0 18.25H10.8V20.75H0V18.25Z" />
</svg>
