<svg viewBox="0 0 32 32" xmlns="http://www.w3.org/2000/svg">
<rect x="10" y="8" width="2" height="2" />
<rect x="4" y="14" width="4" height="2" />
<rect x="6" y="16" width="4" height="2" />
<rect x="6" y="18" width="8" height="2" />
<rect x="24" y="14" width="4" height="2" />
<rect x="22" y="16" width="4" height="2" />
<rect x="18" y="18" width="8" height="2" />
<rect x="20" y="8" width="2" height="2" />
<rect x="12" y="14" width="8" height="2" />
<rect x="12" y="24" width="8" height="2" />
<rect x="8" y="20" width="16" height="2" />
<rect x="10" y="22" width="12" height="2" />
<rect x="2" y="12" width="28" height="2" />
<rect x="6" y="10" width="8" height="2" />
<rect x="18" y="10" width="8" height="2" />
</svg>
