<svg viewBox="0 0 76 77" xmlns="http://www.w3.org/2000/svg">
<rect x="29" y="1" width="28" height="5" />
<rect x="29" y="6" width="5" height="28" />
<rect x="24" y="25" width="5" height="14" />
<rect x="15" y="30" width="9" height="9" />
<rect x="52" y="6" width="5" height="32" />
<rect x="42" y="10" width="10" height="5" />
<rect x="38" y="34" width="10" height="9" />
<rect x="15" y="49" width="46" height="4" />
<rect x="5" y="53" width="66" height="5" />
<rect y="58" width="5" height="9" />
<rect x="48" y="29" width="4" height="14" />
<rect x="71" y="58" width="5" height="9" />
<rect x="19" y="58" width="34" height="5" />
<rect x="9" y="62" width="20" height="5" />
<rect x="42" y="62" width="20" height="5" />
<rect x="4" y="67" width="20" height="5" />
<rect x="47" y="67" width="24" height="5" />
<rect x="10" y="72" width="51" height="5" />
</svg>
