<svg width="105" height="178" viewBox="0 0 105 178" fill="none" xmlns="http://www.w3.org/2000/svg">
<g clip-path="url(#clip0_104_131)">
<path d="M103.915 41.914C102.826 37.1184 101.238 32.4229 99.0274 28.0157C95.8547 21.6931 91.3759 16.0709 85.8074 11.6494C76.1859 4.00936 63.9136 -0.102477 51.5956 -3.85959e-05C44.7498 0.0595187 37.9811 1.46031 31.6934 4.15229C31.3254 4.30953 30.9573 4.47152 30.5917 4.63828C26.1514 6.65846 21.9756 9.26469 18.2617 12.4093C12.2843 17.4669 7.67318 23.911 4.48123 31.0055C-0.363219 41.7758 -1.34943 52.9773 1.86176 64.4409C4.82039 75.004 10.1628 84.3069 17.16 92.7044C24.4339 101.428 32.7734 108.847 43.5712 113.128C43.9609 113.283 44.5646 113.29 44.4708 113.978C44.9447 113.69 45.3921 113.68 45.9453 113.859C50.2991 115.258 54.6673 115.258 59.0186 113.854C59.5767 113.673 60.0216 113.702 60.4955 113.978C60.5075 113.059 61.359 113.144 61.8786 112.94C66.4801 111.124 70.6631 108.597 74.543 105.583C85.2782 97.2427 93.5167 86.9155 99.3016 74.6943C104.242 64.2551 106.508 53.3228 103.915 41.914ZM53.6377 21.817C51.9516 22.4268 50.1788 22.1291 48.4493 22.4102C37.156 24.235 29.2712 30.3241 24.7394 40.6847C23.3154 43.9437 22.6443 47.3766 22.5746 50.95C22.5072 54.4305 20.085 56.2554 17.2562 55.1262C15.8707 54.5735 14.7859 52.813 14.9375 51.1906C15.368 46.5309 16.0199 41.9402 17.9129 37.5663C21.1722 30.0311 26.3029 24.1588 33.3675 19.9469C38.7628 16.7308 44.6392 15.0441 50.9341 14.8059C51.5186 14.8059 52.1055 14.7845 52.69 14.8107C54.5734 14.894 55.7713 16.0161 56.0455 17.9362C56.3101 19.792 55.4201 21.1714 53.6377 21.817Z" fill="#8D83D2"/>
<path d="M48.4493 22.4102C37.156 24.235 29.2712 30.3242 24.7394 40.6848C23.3154 43.9437 22.6443 47.3766 22.5746 50.9501C22.5072 54.4306 20.085 56.2554 17.2563 55.1262C15.8708 54.5735 14.7859 52.813 14.9375 51.1907C15.368 46.5309 16.0199 41.9402 17.9129 37.5663C21.1722 30.0312 26.3029 24.1588 33.3675 19.9469C38.7628 16.7308 44.6392 15.0442 50.9341 14.8059C51.5186 14.8059 52.1055 14.7845 52.69 14.8107C54.5735 14.8941 55.7713 16.0161 56.0455 17.9363C56.3101 19.7921 55.4202 21.1714 53.6378 21.817C51.9516 22.4269 50.1788 22.1291 48.4493 22.4102Z" fill="#F34336"/>
<path d="M60.4955 113.978C55.1556 115.803 49.8132 115.798 44.4708 113.981C44.9447 113.69 45.3921 113.681 45.9453 113.859C50.2991 115.258 54.6673 115.258 59.0186 113.854C59.5767 113.673 60.0217 113.702 60.4955 113.978Z" fill="#F34336"/>
<path d="M51.4248 124.555C50.797 126.414 49.5823 127.893 48.2689 129.301C46.9003 130.768 45.8732 132.412 45.2718 134.342C44.9158 135.485 45.1371 136.333 46.0127 137.143C48.0717 139.047 50.3905 140.622 52.5914 142.344C55.3696 144.519 58.0107 146.839 59.1918 150.272C60.9622 155.42 59.3722 160.137 56.7359 164.504C54.9391 167.477 52.7165 170.148 52.1801 173.762C51.9203 175.513 50.0008 176.573 48.3387 176.351C46.4264 176.099 45.0072 174.595 45.0673 172.663C45.166 169.454 46.2604 166.543 48.115 163.927C49.6616 161.748 51.1867 159.601 52.0093 156.99C52.957 153.981 52.1392 151.652 49.7915 149.734C47.0855 147.525 44.2952 145.415 41.6204 143.171C36.6942 139.037 36.6268 134.897 39.3762 128.982C40.1435 127.331 41.4088 126.023 42.4238 124.543C42.8712 124.086 43.463 124.046 44.0451 124.031C45.967 123.991 47.8913 123.988 49.8132 124.031C50.3953 124.046 50.987 124.086 51.4272 124.555H51.4248Z" fill="#607D8A"/>
<path d="M53.6378 21.817C51.9516 22.4269 50.1788 22.1291 48.4493 22.4102C37.156 24.235 29.2712 30.3242 24.7394 40.6848C23.3154 43.9437 22.6443 47.3766 22.5746 50.9501C22.5072 54.4306 20.085 56.2554 17.2563 55.1262C15.8708 54.5735 14.7859 52.813 14.9375 51.1907C15.368 46.5309 16.0199 41.9402 17.9129 37.5663C21.1722 30.0312 26.3029 24.1588 33.3675 19.9469C38.7628 16.7308 44.6392 15.0442 50.9341 14.8059C51.5186 14.8059 52.1055 14.7845 52.69 14.8107C54.5735 14.8941 55.7713 16.0161 56.0455 17.9363C56.3101 19.7921 55.4202 21.1714 53.6378 21.817Z" fill="#C7C1E9"/>
<path d="M67.144 123.013C66.42 124.802 64.8204 125.333 63.0067 125.35C59.1461 125.383 55.2854 125.407 51.4248 125.436C48.4229 125.431 45.4209 125.426 42.4214 125.421C41.9596 125.374 41.4954 125.331 41.0335 125.276C39.4556 125.088 38.2793 124.316 37.7526 122.808C37.2282 121.309 37.6491 119.944 38.7508 118.839C40.6294 116.947 42.5609 115.104 44.4684 113.241H44.4708C44.9447 112.95 45.3921 112.94 45.9453 113.119C50.2991 114.518 54.6673 114.518 59.0186 113.114C59.5767 112.933 60.0217 112.962 60.4955 113.238C60.4955 113.241 60.4979 113.241 60.4979 113.241C62.2899 114.984 64.0795 116.733 65.8812 118.47C67.2041 119.744 67.856 121.252 67.144 123.013Z" fill="#584E9B"/>
</g>
<defs>
<clipPath id="clip0_104_131">
<rect width="105" height="178" fill="white"/>
</clipPath>
</defs>
</svg>
