<svg width="94" height="129" viewBox="0 0 94 129" fill="none" xmlns="http://www.w3.org/2000/svg">
<g opacity="0.5" clip-path="url(#clip0_110_112)">
<path d="M127.239 110.567C126.073 110.991 125.104 110.33 124.458 108.659C121.238 100.387 117.326 92.4774 112.244 85.1689C105.637 75.6799 97.5617 67.7858 87.2705 62.3397C83.2883 60.235 79.079 58.6754 74.6829 57.6659C74.4356 57.6104 74.1681 57.6608 73.7946 57.6608C74.7334 59.4375 75.6469 61.1031 76.5049 62.794C81.1988 72.0508 83.9899 81.9285 86.0087 92.0534C86.4983 94.4964 86.9525 96.9443 87.3563 99.3973C87.6036 100.917 86.9475 101.871 85.7008 102.037C84.4189 102.209 83.576 101.512 83.2883 100.059C83.2227 99.7002 83.1268 99.3519 83.0662 98.9935C81.6126 90.2162 79.5887 81.5852 76.5604 73.2067C74.8595 68.4975 72.6993 64.0104 70.1657 59.6949C69.2269 58.0949 69.1764 58.0747 68.0812 59.6344C64.5633 64.6363 62.3829 70.2489 60.7477 76.0836C58.5673 83.8666 57.3206 91.8162 56.5434 99.8566C55.6854 108.674 55.3876 117.502 55.5087 126.355C55.5339 128.061 54.7769 129.025 53.4898 129C52.1725 128.98 51.4255 128.051 51.4255 126.355C51.4255 121.767 51.2792 117.174 51.4912 112.596C52.1877 97.762 53.6211 83.0389 58.7288 68.9316C59.8745 65.7669 61.2827 62.7233 63.0239 59.8413C63.1552 59.6142 63.3924 59.4325 63.2914 59.0287C62.605 59.0236 62.0347 59.3971 61.4442 59.6848C55.433 62.6123 50.6382 66.948 46.7569 72.3436C44.4403 75.5587 42.5072 78.9909 40.7457 82.5341C40.2309 83.5689 39.5546 84.4269 38.2474 84.1695C36.8746 83.8969 36.2336 82.4534 36.9099 81.0351C39.2518 76.1543 41.9621 71.4956 45.4245 67.3013C49.1392 62.799 53.5353 59.1397 58.7237 56.4495C58.8701 56.3738 59.0013 56.2627 59.3395 56.0305C55.8368 55.763 52.6066 56.0861 49.4168 56.5706C41.2454 57.8173 33.6141 60.5328 26.7651 65.2773C19.0379 70.6325 13.4406 77.7644 9.2363 86.0774C8.98899 86.5619 8.77196 87.0616 8.51455 87.5411C7.85337 88.7626 6.80861 89.1563 5.69319 88.6263C4.62824 88.1266 4.25475 86.9556 4.83012 85.719C6.44017 82.2565 8.32781 78.9404 10.5284 75.8212C16.3528 67.5587 23.762 61.1788 33.0236 57.0249C39.0348 54.3346 45.3286 52.7851 51.8798 52.1189C54.903 51.811 57.9263 51.9372 61.2625 51.8261C58.1029 49.8425 54.9838 48.4494 51.7889 47.228C45.6465 44.881 39.2972 43.7958 32.7258 44.2652C31.2369 44.3712 29.7682 44.6892 28.2944 44.9113C27.936 44.9668 27.5827 45.0627 27.2193 45.0829C25.9172 45.1586 24.933 44.5125 24.8219 43.4071C24.6958 42.1806 25.4024 41.3731 26.5178 41.1056C28.1379 40.7119 29.7934 40.3838 31.4539 40.2122C39.7212 39.3592 47.5947 40.9743 55.2059 44.1289C58.2745 45.3958 61.207 46.9251 64.0636 48.611C64.2504 48.722 64.422 48.9037 64.7652 48.7069C64.5633 47.5207 63.8769 46.5012 63.3217 45.4463C59.5162 38.2084 54.6507 31.8437 47.9632 26.9982C42.9514 23.3692 37.3793 21.0878 31.3025 20.0026C30.9946 19.9471 30.6666 19.9118 30.3839 19.7906C29.3442 19.3515 28.789 18.5843 29.0313 17.4335C29.2534 16.3483 29.9801 15.7881 31.0956 15.889C34.0986 16.1565 36.9705 16.9843 39.7716 18.0392C51.3095 22.3799 59.4758 30.5364 65.5828 40.9895C66.3752 42.3522 67.102 43.7504 67.9601 45.3201C68.5708 41.8324 69.1512 38.5566 69.9537 35.3263C70.1303 34.6197 70.307 33.9181 70.6653 33.2771C71.3265 32.091 72.3158 31.6569 73.3656 32.1061C74.4659 32.5806 74.8545 33.686 74.4053 34.9781C73.4059 37.8601 73.0123 40.8734 72.4167 43.8463C72.3864 44.0027 72.4369 44.1794 72.4672 44.5529C73.8602 42.6652 75.0967 40.8986 76.4241 39.2027C85.5595 27.5484 97.1175 19.6543 111.754 16.6057C115.444 15.8335 119.184 15.4499 122.954 15.4045C124.857 15.3792 125.917 16.7774 125.245 18.2916C124.877 19.1294 124.216 19.4373 123.302 19.4928C119.552 19.7301 115.807 19.9774 112.108 20.7648C102.982 22.708 94.9775 26.8519 87.962 32.9339C82.9855 37.2443 78.8216 42.2563 75.4097 47.8892C75.1775 48.2728 74.9958 48.6867 74.7889 49.0905C74.8444 49.1409 74.8949 49.1914 74.9453 49.2469C77.9534 48.1062 80.9515 46.9453 83.9697 45.8349C86.2712 44.992 88.6433 44.4116 91.0912 44.1542C92.4842 44.0078 93.4886 44.5731 93.6703 45.7188C93.8823 47.0614 93.2615 48.0608 91.8079 48.2122C87.2251 48.6917 83.0915 50.6047 78.8367 52.139C77.8777 52.4873 76.9793 53.0122 75.7327 53.6028C78.7206 54.4356 81.3502 55.1977 83.8839 56.2324C90.7177 59.0186 96.8298 62.9505 102.367 67.806C111.068 75.4224 117.584 84.6793 122.833 94.9052C124.882 98.9077 126.714 103.001 128.299 107.206C128.975 108.987 128.617 110.057 127.239 110.567Z" fill="#8B85CD"/>
<path d="M77.5446 24.3534C75.7933 24.3534 74.7889 22.8948 75.4753 21.5168C78.7105 15.0613 83.0258 9.48396 88.9159 5.21895C90.001 4.43662 91.283 4.58804 91.9442 5.48646C92.6356 6.42527 92.4338 7.69215 91.2679 8.56029C87.6339 11.2808 84.5905 14.5414 82.0972 18.3168C81.1029 19.826 80.2146 21.4108 79.3313 22.9906C78.872 23.8134 78.2714 24.3231 77.5396 24.3484L77.5446 24.3534Z" fill="#8B85CD"/>
<path d="M6.62693 58.1252C5.83453 58.0747 5.18344 57.7315 4.79986 56.9744C4.44151 56.2728 4.38599 55.541 4.92099 54.9353C8.21679 51.2154 12.0173 48.0961 16.3579 45.6633C17.4077 45.0728 18.6493 45.5068 19.1389 46.5163C19.6789 47.6318 19.3609 48.5807 18.3263 49.1964C14.5257 51.4627 11.1391 54.2287 8.1007 57.4337C7.71712 57.8425 7.22754 58.0697 6.62188 58.1252H6.62693Z" fill="#8B85CD"/>
<path d="M29.9095 102.471C30.4596 99.6951 30.929 96.8787 32.0343 94.2289C32.5189 93.068 33.493 92.7601 34.6185 93.1185C35.7743 93.4869 36.1629 94.4762 35.8449 95.5159C35.0778 98.0295 34.5276 100.589 33.9573 103.142C33.705 104.268 32.7763 104.778 31.681 104.591C30.6009 104.404 29.9701 103.642 29.9145 102.466L29.9095 102.471Z" fill="#8B85CD"/>
<path d="M20.335 27.5635C20.3703 28.7345 19.5022 29.6834 18.3717 29.7086C17.2562 29.7288 16.3376 28.7951 16.3376 27.6291C16.3376 26.5238 17.1704 25.6153 18.2404 25.5597C19.376 25.5042 20.2997 26.3875 20.335 27.5635Z" fill="#8B85CD"/>
<path d="M72.6539 103.254C72.6438 104.44 71.7303 105.328 70.5745 105.288C69.4843 105.247 68.6414 104.339 68.6515 103.223C68.6616 102.103 69.5146 101.224 70.6098 101.204C71.811 101.179 72.664 102.037 72.6539 103.254Z" fill="#8B85CD"/>
<path d="M33.9775 121.934C33.927 123.18 33.0892 123.932 31.8426 123.857C30.7473 123.786 29.9448 122.873 29.9953 121.747C30.0458 120.581 31.0199 119.698 32.1605 119.784C33.2356 119.864 34.0229 120.798 33.9775 121.934Z" fill="#8B85CD"/>
<path d="M59.8745 0.378549L62.7413 3.26058C63.0391 3.55838 63.4631 3.69465 63.8769 3.61894L67.8793 2.89213C68.9241 2.70033 69.7316 3.7956 69.2471 4.73945L67.3898 8.3584C67.198 8.7319 67.203 9.18112 67.3998 9.54957L69.3279 13.1281C69.8326 14.0619 69.0452 15.1673 67.9954 15.0007L63.9829 14.3496C63.569 14.284 63.1451 14.4253 62.8523 14.7281L60.0411 17.6657C59.3092 18.4329 58.0121 18.0241 57.8506 16.9793L57.2248 12.9616C57.1591 12.5426 56.8967 12.1843 56.5131 12.0026L52.8489 10.236C51.8899 9.7767 51.8798 8.41897 52.8287 7.93947L56.4576 6.10224C56.8361 5.91044 57.0935 5.54703 57.1491 5.13315L57.6941 1.10537C57.8355 0.0555192 59.1225 -0.378552 59.8745 0.373502V0.378549Z" fill="#E68ABD"/>
<path d="M7.74741 100.982L9.92779 103.819C10.1549 104.112 10.5082 104.278 10.8817 104.258L14.4551 104.071C15.3888 104.021 15.9743 105.066 15.4443 105.838L13.4204 108.79C13.2084 109.098 13.163 109.487 13.2993 109.83L14.5813 113.172C14.9144 114.045 14.1068 114.923 13.2084 114.655L9.77637 113.641C9.41803 113.535 9.03444 113.611 8.74675 113.848L5.96576 116.099C5.23897 116.684 4.15383 116.185 4.1286 115.251L4.0327 111.672C4.02261 111.304 3.83081 110.961 3.51789 110.759L0.514827 108.811C-0.267484 108.301 -0.126163 107.115 0.752044 106.802L4.12355 105.606C4.4718 105.479 4.7393 105.192 4.8352 104.833L5.76388 101.376C6.00614 100.472 7.17708 100.24 7.74741 100.982Z" fill="#E68ABD"/>
</g>
<defs>
<clipPath id="clip0_110_112">
<rect width="145" height="129" fill="white"/>
</clipPath>
</defs>
</svg>
