<svg width="24" height="23" viewBox="0 0 24 23" fill="none" xmlns="http://www.w3.org/2000/svg">
<path d="M12 0C18.6274 0 24 4.18743 24 9.35429C24 14.52 18.6274 18.7074 12 18.7074C11.3401 18.7078 10.6808 18.6658 10.0263 18.5817L4.98857 21.8766C4.416 22.1794 4.21371 22.1463 4.44914 21.4046L5.46857 17.2011C2.17714 15.5326 0 12.6411 0 9.35429C0 4.18857 5.37257 0 12 0ZM18.7509 9.21143L20.4309 7.584C20.5278 7.48332 20.5819 7.34895 20.5817 7.20919C20.5815 7.06943 20.5271 6.93519 20.43 6.83475C20.3328 6.73431 20.2004 6.67551 20.0607 6.67073C19.921 6.66595 19.785 6.71558 19.6811 6.80914L17.4777 8.94172V7.17943C17.4777 7.03636 17.4209 6.89916 17.3197 6.798C17.2186 6.69683 17.0814 6.64 16.9383 6.64C16.7952 6.64 16.658 6.69683 16.5569 6.798C16.4557 6.89916 16.3989 7.03636 16.3989 7.17943V10.1017C16.3786 10.1851 16.3786 10.2721 16.3989 10.3554V12C16.3989 12.1431 16.4557 12.2803 16.5569 12.3814C16.658 12.4826 16.7952 12.5394 16.9383 12.5394C17.0814 12.5394 17.2186 12.4826 17.3197 12.3814C17.4209 12.2803 17.4777 12.1431 17.4777 12V10.4423L17.9657 9.97029L19.5977 12.2937C19.6385 12.3517 19.6902 12.4011 19.7501 12.4391C19.8099 12.4771 19.8767 12.503 19.9465 12.5152C20.0163 12.5274 20.0879 12.5257 20.1571 12.5103C20.2262 12.4948 20.2917 12.4659 20.3497 12.4251C20.4077 12.3844 20.4571 12.3326 20.4951 12.2728C20.5331 12.2129 20.559 12.1462 20.5712 12.0764C20.5834 12.0065 20.5817 11.935 20.5663 11.8658C20.5508 11.7966 20.5219 11.7311 20.4811 11.6731L18.7509 9.21029V9.21143ZM15.3703 11.4103H13.7017V7.19657C13.6953 7.05795 13.6358 6.92712 13.5354 6.83128C13.4351 6.73544 13.3016 6.68197 13.1629 6.68197C13.0241 6.68197 12.8907 6.73544 12.7903 6.83128C12.6899 6.92712 12.6304 7.05795 12.624 7.19657V11.9497C12.624 12.2469 12.864 12.4891 13.1623 12.4891H15.3703C15.5134 12.4891 15.6506 12.4323 15.7517 12.3311C15.8529 12.23 15.9097 12.0928 15.9097 11.9497C15.9097 11.8067 15.8529 11.6694 15.7517 11.5683C15.6506 11.4671 15.5134 11.4103 15.3703 11.4103ZM8.67657 10.1623L9.472 8.21143L10.2011 10.1623H8.67657ZM11.56 10.72L11.5623 10.7017C11.562 10.5658 11.5101 10.4351 11.4171 10.336L10.2217 7.136C10.1716 6.98351 10.0761 6.84994 9.9481 6.75314C9.82006 6.65634 9.66552 6.60092 9.50514 6.59429C9.34359 6.59358 9.18565 6.64207 9.05233 6.73333C8.91902 6.82459 8.81665 6.95428 8.75886 7.10514L6.86057 11.7623C6.83378 11.8279 6.82017 11.8981 6.82052 11.9689C6.82087 12.0398 6.83517 12.1099 6.8626 12.1752C6.89003 12.2405 6.93006 12.2998 6.98041 12.3496C7.03075 12.3995 7.09041 12.4389 7.156 12.4657C7.22159 12.4925 7.29181 12.5061 7.36265 12.5058C7.4335 12.5054 7.50358 12.4911 7.5689 12.4637C7.63422 12.4363 7.6935 12.3962 7.74334 12.3459C7.79319 12.2955 7.83264 12.2359 7.85943 12.1703L8.23657 11.2411H10.6023L10.944 12.1554C10.9672 12.2238 11.0039 12.2868 11.052 12.3406C11.1 12.3945 11.1583 12.4383 11.2235 12.4692C11.2888 12.5001 11.3595 12.5177 11.4316 12.5207C11.5038 12.5238 11.5758 12.5124 11.6434 12.4872C11.711 12.4619 11.7729 12.4234 11.8253 12.3738C11.8778 12.3242 11.9197 12.2646 11.9487 12.1985C11.9777 12.1324 11.9932 12.0611 11.9941 11.9889C11.9951 11.9168 11.9815 11.8451 11.9543 11.7783L11.56 10.72ZM7.76343 7.20229C7.76343 7.05942 7.70675 6.92239 7.60584 6.82126C7.50492 6.72013 7.36801 6.66316 7.22514 6.66286H3.51657C3.37351 6.66286 3.2363 6.71969 3.13514 6.82085C3.03398 6.92201 2.97714 7.05922 2.97714 7.20229C2.97714 7.34535 3.03398 7.48256 3.13514 7.58372C3.2363 7.68488 3.37351 7.74171 3.51657 7.74171H4.84229V12.0114C4.84229 12.1545 4.89912 12.2917 5.00028 12.3929C5.10144 12.494 5.23865 12.5509 5.38171 12.5509C5.52478 12.5509 5.66199 12.494 5.76315 12.3929C5.86431 12.2917 5.92114 12.1545 5.92114 12.0114V7.74171H7.224C7.36707 7.74171 7.50427 7.68488 7.60543 7.58372C7.7066 7.48256 7.76343 7.34535 7.76343 7.20229Z" fill="#8B85CD"/>
</svg>
